<svg width="17" height="27" viewBox="0 0 17 27" fill="none" xmlns="http://www.w3.org/2000/svg">
<path d="M0.828661 14.3611L16.2368 26.3957C16.2771 26.4274 16.3255 26.4471 16.3764 26.4526C16.4274 26.458 16.4788 26.449 16.5249 26.4265C16.5709 26.404 16.6097 26.369 16.6367 26.3254C16.6638 26.2819 16.678 26.2316 16.6777 26.1804L16.6777 23.5383C16.6777 23.3708 16.5991 23.2102 16.4692 23.1076L4.16459 13.4997L16.4692 3.89181C16.6025 3.78927 16.6777 3.62863 16.6777 3.46115L16.6777 0.819057C16.6777 0.590054 16.4146 0.463589 16.2368 0.603725L0.828661 12.6384C0.697702 12.7406 0.59176 12.8712 0.518893 13.0205C0.446027 13.1697 0.408153 13.3336 0.408153 13.4997C0.408153 13.6658 0.446027 13.8297 0.518893 13.979C0.59176 14.1282 0.697702 14.2589 0.828661 14.3611Z" fill="#FFFEFE"/>
</svg>
