<svg width="17" height="27" viewBox="0 0 17 27" fill="none" xmlns="http://www.w3.org/2000/svg">
<path d="M16.1713 12.6389L0.763185 0.604271C0.722923 0.572573 0.674537 0.552874 0.623584 0.547437C0.572631 0.541999 0.521177 0.551043 0.475133 0.57353C0.429088 0.596017 0.39032 0.631035 0.36328 0.674562C0.336241 0.71809 0.322026 0.768361 0.322269 0.819603V3.46169C0.322269 3.62917 0.400882 3.78982 0.530764 3.89236L12.8354 13.5003L0.530764 23.1082C0.397464 23.2107 0.322269 23.3714 0.322269 23.5389V26.1809C0.322269 26.4099 0.585451 26.5364 0.763185 26.3963L16.1713 14.3616C16.3023 14.2594 16.4082 14.1288 16.4811 13.9795C16.554 13.8303 16.5918 13.6664 16.5918 13.5003C16.5918 13.3342 16.554 13.1703 16.4811 13.021C16.4082 12.8718 16.3023 12.7411 16.1713 12.6389Z" fill="#FFFEFE"/>
</svg>
