<svg width="21" height="21" viewBox="0 0 21 21" fill="none" xmlns="http://www.w3.org/2000/svg">
<path d="M0 0.700022C0 0.514364 0.0737521 0.336311 0.205032 0.205032C0.336311 0.073752 0.514364 0 0.700022 0H2.80009C2.95623 4.31374e-05 3.10789 0.0522926 3.23092 0.148439C3.35396 0.244586 3.44132 0.379109 3.47911 0.530616L4.04612 2.80009H20.3006C20.4034 2.80018 20.5049 2.82291 20.5979 2.86666C20.6909 2.91041 20.7732 2.9741 20.8388 3.05322C20.9044 3.13234 20.9518 3.22493 20.9776 3.32443C21.0034 3.42392 21.007 3.52788 20.988 3.62891L18.888 14.8293C18.858 14.9897 18.7728 15.1346 18.6473 15.2389C18.5218 15.3432 18.3638 15.4003 18.2006 15.4005H5.60017C5.43697 15.4003 5.27895 15.3432 5.15343 15.2389C5.02791 15.1346 4.94278 14.9897 4.91275 14.8293L2.81409 3.64991L2.25407 1.40004H0.700022C0.514364 1.40004 0.336311 1.32629 0.205032 1.19501C0.0737521 1.06373 0 0.885679 0 0.700022ZM7.00022 15.4005C6.25759 15.4005 5.54537 15.6955 5.02026 16.2206C4.49514 16.7457 4.20013 17.4579 4.20013 18.2006C4.20013 18.9432 4.49514 19.6554 5.02026 20.1805C5.54537 20.7056 6.25759 21.0006 7.00022 21.0006C7.74285 21.0006 8.45506 20.7056 8.98018 20.1805C9.50529 19.6554 9.8003 18.9432 9.8003 18.2006C9.8003 17.4579 9.50529 16.7457 8.98018 16.2206C8.45506 15.6955 7.74285 15.4005 7.00022 15.4005ZM16.8005 15.4005C16.0579 15.4005 15.3457 15.6955 14.8206 16.2206C14.2954 16.7457 14.0004 17.4579 14.0004 18.2006C14.0004 18.9432 14.2954 19.6554 14.8206 20.1805C15.3457 20.7056 16.0579 21.0006 16.8005 21.0006C17.5431 21.0006 18.2554 20.7056 18.7805 20.1805C19.3056 19.6554 19.6006 18.9432 19.6006 18.2006C19.6006 17.4579 19.3056 16.7457 18.7805 16.2206C18.2554 15.6955 17.5431 15.4005 16.8005 15.4005ZM7.00022 16.8005C7.37153 16.8005 7.72764 16.948 7.9902 17.2106C8.25276 17.4731 8.40026 17.8292 8.40026 18.2006C8.40026 18.5719 8.25276 18.928 7.9902 19.1905C7.72764 19.4531 7.37153 19.6006 7.00022 19.6006C6.6289 19.6006 6.2728 19.4531 6.01024 19.1905C5.74768 18.928 5.60017 18.5719 5.60017 18.2006C5.60017 17.8292 5.74768 17.4731 6.01024 17.2106C6.2728 16.948 6.6289 16.8005 7.00022 16.8005ZM16.8005 16.8005C17.1718 16.8005 17.5279 16.948 17.7905 17.2106C18.0531 17.4731 18.2006 17.8292 18.2006 18.2006C18.2006 18.5719 18.0531 18.928 17.7905 19.1905C17.5279 19.4531 17.1718 19.6006 16.8005 19.6006C16.4292 19.6006 16.0731 19.4531 15.8105 19.1905C15.548 18.928 15.4005 18.5719 15.4005 18.2006C15.4005 17.8292 15.548 17.4731 15.8105 17.2106C16.0731 16.948 16.4292 16.8005 16.8005 16.8005Z" fill="#FFFEFE"/>
</svg>
