<svg width="88" height="17" viewBox="0 0 88 17" fill="none" xmlns="http://www.w3.org/2000/svg">
<path d="M13.187 14.1543C12.6333 14.7695 11.8232 15.2651 10.7568 15.6411C9.69043 16.0171 8.52148 16.2051 7.25 16.2051C5.29492 16.2051 3.73291 15.6069 2.56396 14.4106C1.39502 13.2144 0.769531 11.5498 0.6875 9.41699L0.677246 8.125C0.677246 6.65527 0.937012 5.37354 1.45654 4.27979C1.97607 3.1792 2.71777 2.33496 3.68164 1.74707C4.65234 1.15234 5.77344 0.85498 7.04492 0.85498C8.9043 0.85498 10.3467 1.28223 11.3721 2.13672C12.4043 2.98438 13.0059 4.25244 13.1768 5.94092H9.71094C9.58789 5.10693 9.32129 4.51221 8.91113 4.15674C8.50098 3.80127 7.91992 3.62354 7.16797 3.62354C6.26562 3.62354 5.56836 4.00635 5.07617 4.77197C4.58398 5.5376 4.33447 6.63135 4.32764 8.05322V8.95557C4.32764 10.4458 4.58057 11.5669 5.08643 12.3188C5.59912 13.064 6.40234 13.4365 7.49609 13.4365C8.43262 13.4365 9.12988 13.228 9.58789 12.811V10.4937H7.08594V8.02246H13.187V14.1543ZM27.9219 8.84277C27.9219 10.2988 27.6519 11.5874 27.1118 12.7085C26.5718 13.8296 25.8027 14.6943 24.8047 15.3027C23.8135 15.9043 22.6821 16.2051 21.4106 16.2051C20.1392 16.2051 19.0112 15.9146 18.0269 15.3335C17.0425 14.7456 16.2734 13.9082 15.7197 12.8213C15.1729 11.7344 14.8857 10.4868 14.8584 9.07861V8.23779C14.8584 6.7749 15.125 5.48633 15.6582 4.37207C16.1982 3.25098 16.9673 2.38623 17.9653 1.77783C18.9702 1.16943 20.1118 0.865234 21.3901 0.865234C22.6548 0.865234 23.7827 1.16602 24.7739 1.76758C25.7651 2.36914 26.5342 3.22705 27.0811 4.34131C27.6348 5.44873 27.915 6.72021 27.9219 8.15576V8.84277ZM24.2612 8.21729C24.2612 6.73389 24.0117 5.60938 23.5127 4.84375C23.0205 4.07129 22.313 3.68506 21.3901 3.68506C19.5854 3.68506 18.6318 5.03857 18.5293 7.74561L18.519 8.84277C18.519 10.3057 18.7617 11.4302 19.2471 12.2163C19.7324 13.0024 20.4536 13.3955 21.4106 13.3955C22.3198 13.3955 23.0205 13.0093 23.5127 12.2368C24.0049 11.4644 24.2544 10.3535 24.2612 8.9043V8.21729ZM31.8389 8.13525C31.4355 7.56104 31.1177 7.01416 30.8853 6.49463C30.6597 5.9751 30.5469 5.43848 30.5469 4.88477C30.5469 3.68164 30.9365 2.71094 31.7158 1.97266C32.4951 1.22754 33.5137 0.85498 34.7715 0.85498C35.8994 0.85498 36.8325 1.2002 37.5708 1.89062C38.3091 2.57422 38.6782 3.42529 38.6782 4.44385C38.6782 5.71533 37.9775 6.84326 36.5762 7.82764L35.7969 8.37109L38.0938 11.0063C38.4697 10.2544 38.6577 9.43066 38.6577 8.53516H41.5596C41.5596 10.5518 41.0947 12.1685 40.165 13.3853L42.4414 16H38.5859L37.8887 15.2104C37.3145 15.5522 36.7266 15.8052 36.125 15.9692C35.5303 16.1333 34.8569 16.2153 34.105 16.2153C32.6284 16.2153 31.4458 15.8291 30.5571 15.0566C29.6685 14.2773 29.2241 13.2554 29.2241 11.9907C29.2241 11.3003 29.3984 10.6748 29.7471 10.1143C30.1025 9.55371 30.7896 8.90088 31.8081 8.15576L31.8389 8.13525ZM34.3306 13.5493C34.9321 13.5493 35.5063 13.4092 36.0532 13.1289L33.3667 10.0732L33.2744 10.1348C32.8848 10.6133 32.6899 11.1533 32.6899 11.7549C32.6899 12.2539 32.8472 12.6777 33.1616 13.0264C33.4761 13.375 33.8657 13.5493 34.3306 13.5493ZM33.5308 4.84375C33.5308 5.32227 33.7905 5.90332 34.3101 6.58691L34.9971 6.15625C35.3115 5.95117 35.5405 5.73926 35.6841 5.52051C35.8276 5.30176 35.8994 5.0249 35.8994 4.68994C35.8994 4.37549 35.79 4.10205 35.5713 3.86963C35.3525 3.63721 35.0825 3.521 34.7612 3.521C34.3784 3.521 34.0776 3.64404 33.8589 3.89014C33.6401 4.12939 33.5308 4.44727 33.5308 4.84375ZM49.4756 10.7295H47.5273V16H43.9282V1.07031H49.8037C51.5742 1.07031 52.9585 1.46338 53.9565 2.24951C54.9546 3.03564 55.4536 4.14648 55.4536 5.58203C55.4536 6.62109 55.2417 7.48242 54.8179 8.16602C54.4009 8.84961 53.7446 9.40332 52.8491 9.82715L55.9663 15.8462V16H52.1108L49.4756 10.7295ZM47.5273 7.95068H49.8037C50.4873 7.95068 51 7.77295 51.3418 7.41748C51.6904 7.05518 51.8647 6.55273 51.8647 5.91016C51.8647 5.26758 51.6904 4.76514 51.3418 4.40283C50.9932 4.03369 50.4805 3.84912 49.8037 3.84912H47.5273V7.95068ZM61.4624 16H57.8735V1.07031H61.4624V16ZM63.9644 16V1.07031H68.7734C70.0928 1.07031 71.2788 1.37109 72.3315 1.97266C73.3843 2.56738 74.2046 3.41162 74.7925 4.50537C75.3872 5.59229 75.688 6.8125 75.6948 8.16602V8.85303C75.6948 10.2202 75.4043 11.4473 74.8232 12.5342C74.249 13.6143 73.4355 14.4619 72.3828 15.0771C71.3369 15.6855 70.168 15.9932 68.876 16H63.9644ZM67.5635 3.84912V13.2314H68.8145C69.8467 13.2314 70.6396 12.8657 71.1934 12.1343C71.7471 11.396 72.0239 10.3022 72.0239 8.85303V8.20703C72.0239 6.76465 71.7471 5.67773 71.1934 4.94629C70.6396 4.21484 69.833 3.84912 68.7734 3.84912H67.5635ZM86.7998 9.67334H81.1396V13.2314H87.8252V16H77.5405V1.07031H87.8457V3.84912H81.1396V6.99707H86.7998V9.67334Z" fill="#801019"/>
</svg>
