<svg width="120" height="24" viewBox="0 0 120 24" fill="none" xmlns="http://www.w3.org/2000/svg">
<path d="M12.0002 1.2002L15.6002 8.4002L22.8002 9.30019L17.8562 14.8442L19.2002 22.8002L12.0002 19.2002L4.80019 22.8002L6.15619 14.8442L1.2002 9.30019L8.40019 8.4002L12.0002 1.2002Z" fill="black"/>
<path d="M36.0002 1.2002L39.6002 8.4002L46.8002 9.30019L41.8562 14.8442L43.2002 22.8002L36.0002 19.2002L28.8002 22.8002L30.1562 14.8442L25.2002 9.30019L32.4002 8.4002L36.0002 1.2002Z" fill="black"/>
<path d="M60.0002 1.2002L63.6002 8.4002L70.8002 9.30019L65.8562 14.8442L67.2002 22.8002L60.0002 19.2002L52.8002 22.8002L54.1562 14.8442L49.2002 9.30019L56.4002 8.4002L60.0002 1.2002Z" fill="black"/>
<path d="M84.0002 1.2002L87.6002 8.4002L94.8002 9.30019L89.8562 14.8442L91.2002 22.8002L84.0002 19.2002L76.8002 22.8002L78.1562 14.8442L73.2002 9.30019L80.4002 8.4002L84.0002 1.2002Z" fill="black"/>
<path d="M108 1.2002L104.4 8.4002L97.2002 9.30019L102.156 14.8442L100.8 22.8002L108 19.2002L115.2 22.8002L113.856 14.8442L118.8 9.30019L111.6 8.4002L108 1.2002ZM108 3.8882L110.808 9.51619L116.388 10.2122L112.572 14.4842L113.616 20.6642L108 17.8562V3.8882Z" fill="black"/>
</svg>
